<svg width="1200" height="800" viewBox="0 0 1200 800" xmlns="http://www.w3.org/2000/svg">
  <rect width="1200" height="800" fill="#f8f9fa"/>
  
  <!-- Title -->
  <text x="600" y="40" font-family="Arial" font-size="32" font-weight="bold" text-anchor="middle" fill="#202124">How Vana Works</text>
  <text x="600" y="70" font-family="Arial" font-size="18" text-anchor="middle" fill="#5f6368">Two-phase process: Planning then Research</text>
  
  <!-- Phase 1 Box -->
  <rect x="50" y="120" width="500" height="600" rx="15" fill="#e8f0fe" stroke="#4285f4" stroke-width="2"/>
  <rect x="50" y="120" width="500" height="60" rx="15" fill="#4285f4"/>
  <text x="300" y="155" font-family="Arial" font-size="24" font-weight="bold" text-anchor="middle" fill="white">Phase 1: Interactive Planning</text>
  
  <!-- User circle -->
  <circle cx="150" cy="250" r="30" fill="#4285f4"/>
  <text x="150" y="260" font-family="Arial" font-size="18" text-anchor="middle" fill="white">You</text>
  <text x="350" y="255" font-family="Arial" font-size="16" text-anchor="middle">Tell us what you need</text>
  
  <!-- AI Planning box -->
  <rect x="150" y="320" width="300" height="80" rx="10" fill="#4285f4"/>
  <text x="300" y="350" font-family="Arial" font-size="18" font-weight="bold" text-anchor="middle" fill="white">AI Creates Plan</text>
  <text x="300" y="375" font-family="Arial" font-size="14" text-anchor="middle" fill="#e8f0fe">Structures your request</text>
  
  <!-- Review box -->
  <rect x="150" y="430" width="300" height="100" rx="10" fill="white" stroke="#34a853" stroke-width="2"/>
  <text x="300" y="460" font-family="Arial" font-size="16" font-weight="bold" text-anchor="middle">You Review Plan</text>
  <text x="300" y="485" font-family="Arial" font-size="14" text-anchor="middle" fill="#5f6368">Approve or suggest changes</text>
  <text x="300" y="510" font-family="Arial" font-size="14" text-anchor="middle" fill="#34a853">Ready to research!</text>
  
  <!-- Time indicator -->
  <text x="300" y="650" font-family="Arial" font-size="16" font-weight="bold" text-anchor="middle" fill="#4285f4">1-2 minutes</text>
  
  <!-- Phase 2 Box -->
  <rect x="650" y="120" width="500" height="600" rx="15" fill="#fff8e1" stroke="#f9ab00" stroke-width="2"/>
  <rect x="650" y="120" width="500" height="60" rx="15" fill="#f9ab00"/>
  <text x="900" y="155" font-family="Arial" font-size="24" font-weight="bold" text-anchor="middle" fill="white">Phase 2: Automatic Research</text>
  
  <!-- AI Agents -->
  <rect x="750" y="220" width="300" height="80" rx="10" fill="#f9ab00"/>
  <text x="900" y="250" font-family="Arial" font-size="18" font-weight="bold" text-anchor="middle" fill="white">8 AI Agents Working</text>
  <text x="900" y="275" font-family="Arial" font-size="14" text-anchor="middle" fill="#fff8e1">Searching and analyzing</text>
  
  <!-- Activities -->
  <rect x="750" y="330" width="140" height="50" rx="5" fill="white" stroke="#4285f4" stroke-width="1"/>
  <text x="820" y="360" font-family="Arial" font-size="14" text-anchor="middle">Web Search</text>
  
  <rect x="910" y="330" width="140" height="50" rx="5" fill="white" stroke="#4285f4" stroke-width="1"/>
  <text x="980" y="360" font-family="Arial" font-size="14" text-anchor="middle">Find Sources</text>
  
  <rect x="750" y="400" width="140" height="50" rx="5" fill="white" stroke="#4285f4" stroke-width="1"/>
  <text x="820" y="430" font-family="Arial" font-size="14" text-anchor="middle">Analyze Data</text>
  
  <rect x="910" y="400" width="140" height="50" rx="5" fill="white" stroke="#4285f4" stroke-width="1"/>
  <text x="980" y="430" font-family="Arial" font-size="14" text-anchor="middle">Check Facts</text>
  
  <!-- Quality Check -->
  <rect x="800" y="480" width="200" height="50" rx="10" fill="#ea4335"/>
  <text x="900" y="510" font-family="Arial" font-size="16" font-weight="bold" text-anchor="middle" fill="white">Quality Check</text>
  
  <!-- Final Report -->
  <rect x="750" y="560" width="300" height="80" rx="10" fill="#34a853"/>
  <text x="900" y="590" font-family="Arial" font-size="18" font-weight="bold" text-anchor="middle" fill="white">Complete Report</text>
  <text x="900" y="615" font-family="Arial" font-size="14" text-anchor="middle" fill="#e8f5e9">Ready to download</text>
  
  <!-- Time indicator -->
  <text x="900" y="650" font-family="Arial" font-size="16" font-weight="bold" text-anchor="middle" fill="#f9ab00">3-5 minutes</text>
  
  <!-- Arrow between phases -->
  <path d="M 560 400 L 640 400" stroke="#5f6368" stroke-width="3" fill="none"/>
  <path d="M 635 395 L 645 400 L 635 405" stroke="#5f6368" stroke-width="3" fill="none"/>
  
  <!-- Timeline -->
  <rect x="100" y="750" width="1000" height="4" fill="#e0e0e0"/>
  <circle cx="300" cy="752" r="8" fill="#4285f4"/>
  <circle cx="900" cy="752" r="8" fill="#f9ab00"/>
  <text x="600" y="780" font-family="Arial" font-size="16" font-weight="bold" text-anchor="middle" fill="#202124">Total: About 5 minutes</text>
</svg>